<?xml version="1.0" encoding="utf-8"?>
<svg version="1.1" xmlns="http://www.w3.org/2000/svg" xmlns:xlink="http://www.w3.org/1999/xlink" x="0px" y="0px"
	 viewBox="0 0 351 243" style="enable-background:new 0 0 351 243;" xml:space="preserve">
<g class="svg-line">
	<line x1="174.9" y1="219.3" x2="0.6" y2="219.3"/>
	<line x1="174.9" y1="78.2" x2="0.6" y2="78.2"/>
	<line x1="174.9" y1="216" x2="0.6" y2="216"/>
	<line x1="174.9" y1="40.2" x2="0.6" y2="40.2"/>
	<line x1="174.9" y1="30.1" x2="0.6" y2="30.1"/>
	<line x1="351" y1="31.9" x2="176.7" y2="31.9"/>
	<line x1="351" y1="42.7" x2="176.7" y2="42.7"/>
	<line x1="351" y1="75.3" x2="176.7" y2="75.3"/>
	<line x1="351" y1="209.8" x2="176.7" y2="209.8"/>
	<line x1="351" y1="213.5" x2="176.7" y2="213.5"/>
	<line class="base" x1="0.2" y1="170" x2="351" y2="170"/>
</g>
<g>
	<g>
		<path class="svg-letter" d="M68,89.7c9.3-10.3,19.2-14.9,29.9-14.9c20.6,0,36.9,18.2,36.9,48.3c0,29.9-17.3,49.9-40,49.9
			c-9.1,0-18.4-3.3-26.8-13.8l-1.6,12.8L37.3,170v-7l14.6-2.7c0.2-9.7,0.4-22.5,0.4-31V46l-15.9-1.9v-6.8l29.7-8.7l2.7,1.6L68,57.7
			V89.7z M68.6,151c8,7.6,15.9,10.9,23.1,10.9c13.8,0,25.6-12.2,25.6-37.2c0-24.8-10.1-38.8-24.6-38.8c-6,0-13.6,2.5-24.1,11.3V151z
			"/>
	</g>
	<g>
		<path class="svg-letter" d="M225.6,31.9h15.9v37.6l-0.4,17.1c8.5-7.6,19-13.2,29.5-13.2c24.4,0,37.4,18.8,37.4,47.9
			c0,32.2-19.2,51-40.7,51c-8.7,0-18.6-4.3-27-11.6h-0.6l-1.4,9.3h-12.8V31.9z M264.6,158.9c15.5,0,27-14.2,27-37.4
			c0-20.8-7-34.7-24.8-34.7c-8,0-16.3,4.5-25.2,12.8V149C249.8,156.2,258.4,158.9,264.6,158.9z"/>
	</g>
	<polygon class="svg-letter-part" points="68,78.6 68,57.7 68.8,30.1 66.1,28.6 36.4,37.3 36.4,44.1 52.3,46 52.3,78.6 	"/>
	<polygon class="svg-letter-part" points="241.4,75.3 241.5,69.5 241.5,31.9 225.6,31.9 225.6,75.3 	"/>
</g>
</svg>
