<?xml version="1.0"?>
<svg version="1.1" xmlns="http://www.w3.org/2000/svg" xmlns:xlink="http://www.w3.org/1999/xlink" x="0px" y="0px"
	 viewBox="0 0 351 243" style="enable-background:new 0 0 351 243;" xml:space="preserve">
<g class="svg-line">
	<line x1="174.9" y1="219.3" x2="0.6" y2="219.3"/>
	<line x1="174.9" y1="78.2" x2="0.6" y2="78.2"/>
	<line x1="174.9" y1="216" x2="0.6" y2="216"/>
	<line x1="174.9" y1="40.2" x2="0.6" y2="40.2"/>
	<line x1="174.9" y1="30.1" x2="0.6" y2="30.1"/>
	<line x1="351" y1="31.9" x2="176.7" y2="31.9"/>
	<line x1="351" y1="42.7" x2="176.7" y2="42.7"/>
	<line x1="351" y1="75.3" x2="176.7" y2="75.3"/>
	<line x1="351" y1="209.8" x2="176.7" y2="209.8"/>
	<line x1="351" y1="213.5" x2="176.7" y2="213.5"/>
	<line class="base" x1="0.2" y1="170" x2="351" y2="170"/>
</g>
<g>
	<g>
		<path class="svg-letter-part" d="M139.4,135.5L138,170H37.5v-8l17.8-2.1c0.4-16.3,0.4-33.2,0.4-50.1v-9.5c0-16.7,0-33.4-0.4-50.1l-17.8-2.1v-8
			h96.6l1.4,34.3h-11.1l-4.3-24.6H74.6c-0.4,16.1-0.4,32.6-0.4,49.3h28.5l2.7-18.4h8.9v45.8h-8.9l-2.5-18.2H74.2
			c0,18.4,0,35.3,0.4,52h49.5l4.3-24.8H139.4z"/>
	</g>
	<g>
		<path class="svg-letter-part" d="M229.8,42.7h73.3v13.6h-57v40h48.1v13.8H246v46.2h59V170h-75.3V42.7z"/>
	</g>
</g>
</svg>
