<?xml version="1.0" encoding="utf-8"?>
<svg version="1.1" xmlns="http://www.w3.org/2000/svg" xmlns:xlink="http://www.w3.org/1999/xlink" x="0px" y="0px"
	 viewBox="0 0 351 243" style="enable-background:new 0 0 351 243;" xml:space="preserve">
<g class="svg-line">
	<line x1="174.9" y1="219.3" x2="0.6" y2="219.3"/>
	<line x1="174.9" y1="78.2" x2="0.6" y2="78.2"/>
	<line x1="174.9" y1="216" x2="0.6" y2="216"/>
	<line x1="174.9" y1="40.2" x2="0.6" y2="40.2"/>
	<line x1="174.9" y1="30.1" x2="0.6" y2="30.1"/>
	<line x1="351" y1="31.9" x2="176.7" y2="31.9"/>
	<line x1="351" y1="42.7" x2="176.7" y2="42.7"/>
	<line x1="351" y1="75.3" x2="176.7" y2="75.3"/>
	<line x1="351" y1="209.8" x2="176.7" y2="209.8"/>
	<line x1="351" y1="213.5" x2="176.7" y2="213.5"/>
	<line class="base" x1="0.2" y1="170" x2="351" y2="170"/>
</g>
<g id="Layer_3">
	<g>
		<path class="svg-letter" d="M69,89.1c9.1-9.9,19-14.4,29.3-14.4c20.8,0,37.1,18.2,37.1,48.3c0,29.9-17.3,49.9-40,49.9
			c-8.9,0-17.7-3.1-25.8-12.8v15.3c0,10.3,0.2,20.8,0.4,31.2l17.7,2.9v6.8H37.7v-6.8l15.5-2.7c0.2-10.7,0.4-21,0.4-31.4v-56.1
			c0-10.7-0.2-16.5-0.6-24.3l-15.3-1.7v-6.8l27.2-11.8l2.9,1.9L69,89.1z M70.1,152c7.2,7,14.2,9.9,21.3,9.9
			c14.5,0,26.4-12.2,26.4-37.2c0-24.8-10.1-38.8-24.3-38.8c-6,0-13.6,2.5-23.5,10.7V152z"/>
	</g>
	<g>
		<path class="svg-letter" d="M241.5,178v31.8h-15.9V75.7h13.2l1.4,10.9h0.6c8.5-7.2,19-13.2,30.1-13.2c24.3,0,37.2,18.8,37.2,48.1
			c0,32-19.2,50.8-40.7,50.8c-8.7,0-17.5-4.1-26.2-10.9L241.5,178z M264.6,158.9c15.5,0,27-14.2,27-37.4c0-20.8-7-34.7-24.8-34.7
			c-8,0-15.9,4.5-25.2,12.8V149C250,156.2,258.4,158.9,264.6,158.9z"/>
	</g>
	<path class="svg-letter-part" d="M69.5,175.4V170H53.6v5.4c0,10.5-0.2,20.8-0.4,31.4l-15.5,2.7v6.8h49.9v-6.8l-17.7-2.9
		C69.7,196.2,69.5,185.7,69.5,175.4z"/>
	<polygon class="svg-letter-part"  points="241.5,178 241.3,170 225.6,170 225.6,209.8 241.5,209.8 	"/>
</g>
</svg>
