<?xml version="1.0" encoding="utf-8"?>
<svg version="1.1" xmlns="http://www.w3.org/2000/svg" xmlns:xlink="http://www.w3.org/1999/xlink" x="0px" y="0px"
	 viewBox="0 0 351 243" style="enable-background:new 0 0 351 243;" xml:space="preserve">
<g class="svg-line">
	<line x1="174.9" y1="219.3" x2="0.6" y2="219.3"/>
	<line x1="174.9" y1="78.2" x2="0.6" y2="78.2"/>
	<line x1="174.9" y1="216" x2="0.6" y2="216"/>
	<line x1="174.9" y1="40.2" x2="0.6" y2="40.2"/>
	<line x1="174.9" y1="30.1" x2="0.6" y2="30.1"/>
	<line x1="351" y1="31.9" x2="176.7" y2="31.9"/>
	<line x1="351" y1="42.7" x2="176.7" y2="42.7"/>
	<line x1="351" y1="75.3" x2="176.7" y2="75.3"/>
	<line x1="351" y1="209.8" x2="176.7" y2="209.8"/>
	<line x1="351" y1="213.5" x2="176.7" y2="213.5"/>
	<line class="base" x1="0.2" y1="170" x2="351" y2="170"/>
</g>
<g id="Layer_5">
	<g>
		<path class="svg-letter-part" d="M64.6,122.9c0.4,23.9,12.6,37.4,31.4,37.4c12.2,0,20-5.4,27-13.6l4.7,3.7c-7.2,13.8-19.6,22.5-37.2,22.5
			c-26.2,0-43.3-18.4-43.3-48.1s20.4-50.1,44.6-50.1c20.2,0,36.1,14,36.1,37.4c0,4.3-0.6,8.1-1.4,10.7H64.6z M100.3,114.7
			c9.3,0,11.4-4.5,11.4-10.1c0-11.1-9.1-21-21.1-21c-10.9,0-23.5,8.5-25.6,31H100.3z"/>
	</g>
	<g>
		<path class="svg-letter-part" d="M266.6,73.4c24.1,0,37.6,17.3,37.6,44.2c0,3.3-0.2,6.4-0.6,8.7H240c1.2,20.4,13.4,33.2,31.4,33.2
			c8.9,0,16.5-2.9,23.5-7.4l5.6,10.5c-8.1,5.2-18.2,9.7-31,9.7c-25.2,0-45.2-18.4-45.2-49.3C224.3,92.2,245.1,73.4,266.6,73.4z
			 M290.3,115.9c0-19.2-8.5-29.9-23.3-29.9c-13.2,0-25.2,10.9-27.2,29.9H290.3z"/>
	</g>
</g>
</svg>
