<?xml version="1.0" encoding="utf-8"?>
<!-- Generator: Adobe Illustrator 19.0.1, SVG Export Plug-In . SVG Version: 6.00 Build 0)  -->
<svg version="1.1" id="measure" xmlns="http://www.w3.org/2000/svg" xmlns:xlink="http://www.w3.org/1999/xlink" x="0px" y="0px"
	 viewBox="0 0 756 243" style="enable-background:new 0 0 756 243;" xml:space="preserve">	
<style type="text/css">
    #ig #base line {stroke:#007468;stroke-miterlimit:10;stroke-width:4;}
	#ig g {opacity:0;}
	#ig g.on {opacity:100;}
	.svgtext{fill:#444;}
	.svgfocus{fill:#007468; opacity: 0.5;}
	.svgline{stroke:#444;stroke-miterlimit:10;stroke-width:1;}
	.invert .svgtext, .invert .svgline {fill:#FFFFFF;}
	#numbers {opacity:0;}
	.no-js #numbers {opacity:100;}
</style>
<g id="ig">
	<g id="base">
		<line class="svgline" x1="0" y1="170" x2="756" y2="170">
		<animate class="ani" attributeName="stroke-width" from="0" to="2" dur="250ms" repeatCount="1" />
		</line>
	</g>
	<g id="des">
		<rect y="170" class="svgfocus" width="756" height="46.4">
		<animate class="ani" attributeName="height" from="0" to="46.4" dur="500ms" repeatCount="1" />
		</rect>
	</g>
	<g id="asc">
		<rect y="30.1" class="svgfocus" width="756" height="48.2">
		<animate class="ani" attributeName="height" from="0" to="48.2" dur="500ms" repeatCount="1" />
		</rect>
	</g>
	<g id="x">
		<rect y="78.2" class="svgfocus" width="756" height="91.8">
		<animate class="ani" attributeName="height" from="0" to="91.8" dur="750ms" repeatCount="1" />
		</rect>
	</g>
	<g id="cap">
		<rect y="40.2" class="svgfocus" width="756" height="129.8">
		<animate class="ani" attributeName="height" from="0" to="129.8" dur="1s" repeatCount="1" />
		</rect>
	</g>
</g>
<g id="lines">
	<line class="svgline" x1="0" y1="170" x2="756" y2="170"/>
	<line class="svgline" x1="0" y1="78.2" x2="756" y2="78.2"/>
	<line class="svgline" x1="0" y1="40.2" x2="756" y2="40.2"/>
	<line class="svgline" x1="0" y1="30.1" x2="756" y2="30.1"/>
	<line class="svgline" x1="0" y1="216.4" x2="756" y2="216.4"/>
</g>
<g id="numbers">
	<g>
		<path class="svgtext" d="M7.1,28.5v0.6H1.2v-0.6l2.3-0.4c0-0.8,0-1.6,0-2.4v-5.8l-2.1,0.2v-0.7l3.3-0.8l0.2,0.2l-0.1,2.3v4.6
			c0,0.8,0,1.6,0,2.4L7.1,28.5z"/>
		<path class="svgtext" d="M7.4,50.5v1.3H0.8v-1l2.5-2.5c1.5-1.5,2.2-2.8,2.2-4.1c0-1.3-0.8-2.1-1.9-2.1c-0.2,0-0.5,0-0.8,0.1l-0.3,1.1
			c-0.2,0.8-0.5,1.1-0.9,1.1c-0.4,0-0.6-0.2-0.8-0.5c0.2-1.7,1.6-2.5,3.2-2.5c2.1,0,3,1.1,3,2.7c0,1.4-0.7,2.5-2.9,4.6l-2,1.9H7.4z"
			/>
		<path class="svgtext" d="M2.7,68.1c-0.2,0.7-0.4,1-0.9,1c-0.4,0-0.7-0.1-0.8-0.6c0.3-1.4,1.5-2,3-2c1.9,0,3.1,1,3.1,2.5
			c0,1.2-0.8,2.1-2.1,2.6c1.6,0.3,2.4,1.3,2.4,2.6c0,1.7-1.4,3.1-3.6,3.1c-1.6,0-2.8-0.7-3.1-2.3c0.2-0.4,0.5-0.5,0.8-0.5
			c0.5,0,0.7,0.4,0.9,1.2l0.2,0.8c0.4,0.1,0.7,0.1,0.9,0.1c1.6,0,2.4-0.9,2.4-2.3c0-1.4-0.8-2.2-2.4-2.2H2.7v-0.8h0.6
			c1.4,0,2.3-0.8,2.3-2.1c0-1.2-0.7-1.8-2-1.8c-0.2,0-0.4,0-0.7,0.1L2.7,68.1z"/>
		<path class="svgtext" d="M7.7,165.9H6.1v3.1H4.7v-3.1H0.4v-0.8l4.8-6.5h0.9v6.4h1.7V165.9z M4.7,164.9v-4.7l-3.4,4.7H4.7z"/>
		<path class="svgtext" d="M2.3,208.8c0.5-0.1,1-0.2,1.5-0.2c2.1,0,3.5,1.2,3.5,3.3c0,2-1.5,3.5-3.7,3.5c-1.6,0-2.7-0.8-3-2.3
			c0.1-0.4,0.4-0.5,0.8-0.5c0.5,0,0.7,0.2,0.9,1.1l0.2,0.9c0.3,0.1,0.6,0.1,0.9,0.1c1.6,0,2.4-1,2.4-2.6c0-1.6-1-2.5-2.5-2.5
			c-0.5,0-1,0.1-1.5,0.2l-0.4-0.1l0.3-4.8H7v1.3H2.5L2.3,208.8z"/>
	</g>
</g>
<g id="text">
	<path class="svgtext" d="M160.8,135.5l-1.4,34.5H59v-8l17.8-2.1c0.4-16.3,0.4-33.2,0.4-50.1v-9.5c0-16.7,0-33.4-0.4-50.1L59,48.2v-8
		h96.6l1.4,34.3h-11.1l-4.3-24.6H96c-0.4,16.1-0.4,32.6-0.4,49.3h28.5l2.7-18.4h8.9v45.8h-8.9l-2.5-18.2H95.6c0,18.4,0,35.3,0.4,52
		h49.5l4.3-24.8H160.8z"/>
	<path class="svgtext" d="M263.6,163v7H218v-7l13.4-2.5L213,132.6l-20.2,27.9l14,2.5v7h-37.4v-7l12.2-2.3l27-35.1l-26.2-37.6l-12-1.7v-8
		H212v8l-10.9,1.7l17.8,26.8l19.4-26.4L226,86.2v-8h34.5v8l-10.7,1.9l-26,33.6l27,39L263.6,163z"/>
	<path class="svgtext" d="M299.7,89.1c9.1-9.9,19-14.4,29.3-14.4c20.8,0,37.1,18.2,37.1,48.3c0,29.9-17.3,49.9-40,49.9
		c-8.9,0-17.7-3.1-25.8-12.8v15.3c0,10.3,0.2,20.8,0.4,31.2l17.7,2.9v6.8h-49.9v-6.8l15.5-2.7c0.2-10.7,0.4-21,0.4-31.4v-56.1
		c0-10.7-0.2-16.5-0.6-24.3l-15.3-1.7v-6.8l27.2-11.8l2.9,1.9L299.7,89.1z M300.9,152c7.2,7,14.2,9.9,21.3,9.9
		c14.5,0,26.4-12.2,26.4-37.2c0-24.8-10.1-38.8-24.3-38.8c-6,0-13.6,2.5-23.5,10.7V152z"/>
	<path class="svgtext" d="M425.8,163v7h-48.1v-7l15.5-2.7c0.2-10.5,0.4-20.8,0.4-31V46l-15.9-1.9v-6.8l30.3-8.7l2.7,1.6l-0.8,27.5v71.6
		c0,10.3,0.2,20.8,0.4,31L425.8,163z"/>
	<path class="svgtext" d="M526.3,161.9c-4.5,8.1-9.5,10.1-15.7,10.1c-11.1,0-17.1-5.8-18.6-14.9c-10.7,10.7-17.1,15.9-28.5,15.9
		c-14.2,0-26-8.5-26-24.6c0-11.1,6-20,32.2-29.5c6-2.1,14.2-4.7,21.9-6.4v-5.2c0-18.8-5.4-23.5-18.2-23.5c-2.7,0-6,0.2-9.9,1.2
		l-3.9,13.4c-1.7,6-5.2,9.3-10.5,9.3c-5.4,0-8.5-3.3-9.1-8.3c3.7-14.7,18-24.4,37.8-24.4c20.4,0,30.1,9.3,30.1,33.8v41.9
		c0,8,2.1,11.4,6.4,11.4c3.1,0,5.6-1.7,7.2-3.3l1-1L526.3,161.9z M491.6,119.6c-6.8,1.9-13.8,4.3-17.8,5.8c-16.9,6.6-19,14.2-19,20
		c0,5,1.6,8,3.9,10.3c2.9,3.1,7,4.5,11.6,4.5c6.4,0,10.1-2.7,21.3-10.7V119.6z"/>
	<path class="svgtext" d="M579.3,163v7h-45v-7l14.4-2.7c0.2-9.7,0.4-22.3,0.4-31v-9.7c0-10.7-0.2-16.7-0.6-24.4l-15.3-1.7v-6.8
		l30.1-11.8l2.9,1.9l-0.6,26.4v26.2c0,8.5,0.2,21.3,0.4,31L579.3,163z M544.2,41.6c0-7.6,5.6-12.4,13-12.4c7.2,0,13,4.9,13,12.4
		c0,7.2-5.8,12.4-13,12.4C549.8,54,544.2,48.8,544.2,41.6z"/>
	<path class="svgtext" d="M697,163v7h-45v-7l14.4-2.7c0.2-9.5,0.4-22.1,0.4-31v-17.1c0-17.8-4.7-23.5-16.1-23.5
		c-8.9,0-16.5,3.5-26.4,11.6v28.9c0,8.5,0.2,21.3,0.4,31l13.4,2.7v7h-45v-7l14.4-2.7c0.2-9.7,0.4-22.3,0.4-31v-9.9
		c0-10.7-0.2-16.5-0.6-24.3l-15.3-1.7v-6.8L619,74.7l2.9,1.9l1.6,15.7c9.5-10.5,22.7-17.7,34.7-17.7c16.7,0,24.8,10.5,24.8,35.9
		v18.6c0,8.9,0.2,21.3,0.4,31L697,163z"/>
</g>
</svg>
