<?xml version="1.0" encoding="utf-8"?>
<!-- Generator: Adobe Illustrator 19.0.0, SVG Export Plug-In . SVG Version: 6.00 Build 0)  -->
<svg id="measure" version="1.1" xmlns="http://www.w3.org/2000/svg" xmlns:xlink="http://www.w3.org/1999/xlink" x="0px" y="0px"
	 viewBox="0 0 800 151.5" style="enable-background:new 0 0 800 151.5;" xml:space="preserve">
<style type="text/css">
    #ig #base line {stroke:#40978E;stroke-miterlimit:10;stroke-width:4;}
	#ig g {opacity:0;}
	#ig g.on {opacity:100;}
</style>
<g id="ig">
<g id="base">
	<line class="svgline" x1="0" y1="110.9" x2="800" y2="110.9">
	<animate class="ani" attributeName="stroke-width" from="0" to="2" dur="250ms" repeatCount="1" />
	</line>
</g>
<g id="des">
	<rect y="110.9" class="svgfocus" width="800" height="38.7">
	<animate class="ani" attributeName="height" from="0" to="38.7" dur="500ms" repeatCount="1" />
    </rect>
</g>
<g id="asc">
	<rect id="a" y="3.7" class="svgfocus" width="800" height="48.2">
	<animate class="ani" attributeName="height" from="0" to="48.2" dur="500ms" repeatCount="1" />
    </rect>
</g>

<g id="x">
	<rect y="51.8" class="svgfocus" width="800" height="59.1">
	<animate class="ani" attributeName="height" from="0" to="59.1" dur="750ms" repeatCount="1" />
    </rect>
</g>
<g id="cap">
	<rect y="11.9" class="svgfocus" width="800" height="99">
	<animate class="ani" attributeName="height" from="0" to="99" dur="1s" repeatCount="1" />
    </rect>
</g>
</g>
<g id="lines">
	<line class="svgline" x1="0" y1="110.9" x2="800" y2="110.9"/>
	<line class="svgline" y1="51.8" x2="800" y2="51.8"/>
	<line class="svgline" x1="0" y1="11.9" x2="800" y2="11.9"/>
	<line class="svgline" x1="0" y1="3.7" x2="800" y2="3.7"/>
	<line class="svgline" x1="0" y1="149.6" x2="800" y2="149.6"/>
</g>
<g id="text">
		<path class="svgtext" d="M198,34.4c0-15.6-0.3-17.8-9.1-18.9l-2.4-0.3c-0.9-0.6-0.6-3.3,0.3-3.7
			c6.4,0.3,11.5,0.4,17.7,0.4h28.2c9.6,0,18.4,0,20.2-0.4c0.9,2.5,1.8,13.3,2.4,19.9c-0.6,0.9-3,1.2-3.8,0.3
			c-2.3-7-3.6-12.3-11.4-14.2c-3.1-0.8-7.9-0.9-14.5-0.9h-10.8c-4.5,0-4.5,0.3-4.5,6v30c0,4.2,0.5,4.2,5,4.2h8.7
			c6.3,0,10.9-0.3,12.7-0.9c1.8-0.6,2.9-1.5,3.6-5.2l1.2-6.1c0.8-0.9,3.3-0.9,3.9,0.1c0,3.6-0.6,9.4-0.6,15.1
			c0,5.4,0.6,11.1,0.6,14.4c-0.6,1-3.1,1-3.9,0.1l-1.3-5.8c-0.6-2.7-1.6-4.9-4.6-5.7c-2.1-0.6-5.7-0.8-11.5-0.8h-8.7
			c-4.5,0-5,0.1-5,4v21.1c0,7.9,0.5,13,2.9,15.6c1.8,1.8,4.9,3.4,18.1,3.4c11.5,0,15.9-0.6,19.2-2.3c2.7-1.5,6.7-6.7,10.6-14.5
			c1-0.8,3.1-0.3,3.8,1c-1.1,5.3-4.8,16.8-6.8,20.8c-13.5-0.3-26.8-0.5-40.2-0.5h-13.5c-6.4,0-11.5,0.1-20.4,0.5
			c-0.9-0.5-1.2-2.9-0.3-3.8l4.9-0.5c8.5-0.8,9.3-3,9.3-18.7V34.4z"/>
		<path class="svgtext" d="M278.5,62c-2.3-3.3-4.8-5.7-9-6.4l-2.4-0.5c-0.9-0.8-0.8-3.3,0.3-3.7c5.9,0.3,9.3,0.4,13,0.4
			c3.6,0,6.9-0.1,12.7-0.4c1,0.6,1,3,0.1,3.7l-2.3,0.5c-4,0.8-3.9,1.6-1.4,5.2l7.2,10.5c0.6,0.9,1.5,2.1,2,2.6
			c0.6-0.5,5.5-7.9,8.7-12.7c2.5-3.9,2.1-4.6-1.2-5.5l-1.8-0.5c-0.9-0.9-0.6-3.3,0.6-3.7c3.4,0.3,7.3,0.4,10.9,0.4
			c3.5,0,8.1-0.1,10.9-0.4c1.2,0.6,1.2,3,0.3,3.7l-2.2,0.5c-3.6,0.8-5.9,1.2-7.5,2.5c-2.5,2.1-8.1,9-14.1,17.1
			c-1.8,2.4-1.8,2.9,0.1,5.5l13.9,19.6c3.5,4.8,5.9,6.7,9.9,7l2.4,0.1c0.9,0.9,0.8,3.3-0.3,3.8c-5.5-0.3-10.5-0.5-14.8-0.5
			c-5.5,0-9.4,0.1-14.2,0.5c-1.2-0.5-1.5-3-0.5-3.8l4.4-0.5c4.3-0.4,4.5-1.8,2.5-4.5l-7.8-11.2c-1.8-2.7-2.7-3.9-3.3-4.4
			c-0.5,0.5-1.6,2-2.7,3.6l-6.3,9.9c-3,4.8-3.3,6,0.4,6.6l2.6,0.5c0.9,0.8,0.7,3.3-0.3,3.8c-3.8-0.3-7.5-0.5-11.1-0.5
			c-3.7,0-7,0.1-10.9,0.5c-1.2-0.6-1.4-3.1-0.3-3.8l3.5-0.6c2.7-0.4,4.8-1.6,7.5-4.5c3.1-3.3,9.9-13.3,13.3-17.5
			c1.3-1.6,1.6-2.3,0.4-3.9L278.5,62z"/>
		<path class="svgtext" d="M343,67.9c0-5.8,0-6.6-4-9.3l-1.4-0.9c-0.6-0.6-0.6-2.2,0.1-2.7c3.9-1.6,10.9-5.2,14.8-8.1
			c0.9,0,1.5,0.3,1.8,1c-0.3,2.7-0.6,4.9-0.6,6.9c0,1,0.3,1.9,1.4,1.9c2-0.9,11.4-7,21-7c15.1,0,24.9,12.3,24.9,27.4
			c0,20.8-15.3,35.8-36.6,35.8c-2.7,0-6.9-0.3-8.3-0.6c-1.3,0.3-2.1,1-2.1,4.2v15.7c0,10.6,0.3,12,5.7,12.7l5.8,0.8
			c1.1,0.8,0.8,3.3-0.3,3.7c-7.2-0.3-11.5-0.4-16.8-0.4c-5.4,0-9.9,0.1-14.1,0.4c-1-0.4-1.3-3-0.3-3.7l3.1-0.5
			c5.5-0.8,5.7-2.3,5.7-13V67.9z M354.1,95.8c0,4.8,1.5,6.6,4.5,9c3,2.3,7.6,3.3,10.8,3.3c12.3,0,19.5-11.4,19.5-27
			c0-12-6.7-24.1-20.2-24.1c-6.4,0-11.1,2.4-12.7,4.2c-1.4,1.6-1.8,3.9-1.8,8.8V95.8z"/>
		<path class="svgtext" d="M430.6,94.1c0,10.8,0.3,12.3,5.7,13l3.6,0.5c1,0.8,0.8,3.3-0.3,3.8c-5-0.3-9.3-0.5-14.5-0.5
			c-5.4,0-9.9,0.1-14.4,0.5c-1-0.5-1.3-3-0.3-3.8l3.5-0.5c5.5-0.8,5.7-2.3,5.7-13V26.3c0-8.8-0.1-9.7-4.6-12.4l-1.5-0.9
			c-0.8-0.5-0.8-2.6,0-3c3.8-1.2,10.8-3.4,16.2-6.3c0.6,0,1.2,0.3,1.5,0.9c-0.2,4.5-0.5,12-0.5,18.6V94.1z"/>
		<path class="svgtext" d="M478.9,79.9c2.3-0.8,2.5-2.1,2.5-4.3l0.1-6.9c0.2-5.5-1.6-13-10.9-13c-4.2,0-9.3,2.1-9.6,6.7
			c-0.2,2.4-0.3,4.2-1.5,5.1c-2.3,1.8-6.3,2.8-8.5,2.8c-1.3,0-2.1-0.8-2.1-2.1c0-7.8,16.9-18.4,27.9-18.4c10.8,0,16,6.3,15.6,17.5
			l-0.9,26.1c-0.3,6.9,1,13,6.9,13c1.5,0,2.8-0.4,3.8-0.9c0.8-0.4,1.5-1,1.9-1c0.6,0,1.1,0.9,1.1,1.9c0,0.8-5.3,6.6-12.6,6.6
			c-3.6,0-7.2-1.4-9.8-4.6c-0.6-0.9-1.5-2.1-2.4-2.1c-1,0-2.9,1.4-5.9,3c-3.3,1.8-6.6,3.8-10.8,3.8c-4.3,0-8-1.2-10.5-3.5
			c-2.8-2.5-4.6-6.3-4.6-10.5c0-5.8,2.8-9.3,12.4-12.7L478.9,79.9z M469.6,106.3c3,0,7.6-2.3,9.1-3.7c1.8-1.8,1.8-3.9,2-7l0.3-8.8
			c0-1.6-0.6-2-1.5-2c-0.9,0-3.5,0.6-6.1,1.5c-8.8,3-13.2,5.3-13.2,11.1C460.2,99.8,462,106.3,469.6,106.3z"/>
		<path class="svgtext" d="M518.6,67.9c0-5.8,0-6.6-4-9.3l-1.3-0.9c-0.6-0.6-0.6-2.2,0.1-2.7c3.5-1.2,12-5.1,15.5-7.3
			c0.8,0,1.3,0.3,1.5,0.9c-0.3,5.3-0.6,12.4-0.6,18.6v27c0,10.8,0.3,12.3,5.7,13l3.1,0.5c1,0.8,0.8,3.3-0.3,3.8
			c-4.5-0.3-8.8-0.5-14.1-0.5c-5.4,0-9.9,0.1-14.1,0.5c-1-0.5-1.3-3-0.3-3.8l3.2-0.5c5.5-0.8,5.7-2.3,5.7-13V67.9z M531.1,25.1
			c0,5.4-3.7,7.8-7.9,7.8c-4.6,0-7.6-3.4-7.6-7.5c0-4.9,3.6-8.1,8.1-8.1S531.1,20.9,531.1,25.1z"/>
		<path class="svgtext" d="M557.2,67.9c0-5.8,0-6.6-4-9.3l-1.3-0.9c-0.6-0.6-0.6-2.2,0.1-2.7c3.5-1.2,12-5.1,15-7.3
			c0.6,0,1.3,0.3,1.6,1c-0.3,3.4-0.3,5.7-0.3,7c0,0.9,0.6,1.6,1.7,1.6c6.3-3.9,13.3-7.6,21-7.6c12.4,0,17.5,8.5,17.5,18.6v25.8
			c0,10.8,0.3,12.3,5.7,13l3.3,0.5c1,0.8,0.8,3.3-0.3,3.8c-4.5-0.3-8.8-0.5-14.1-0.5c-5.4,0-9.9,0.1-13.9,0.5c-1-0.5-1.4-3-0.3-3.8
			l2.9-0.5c5.5-0.9,5.7-2.3,5.7-13V71.8c0-8.5-3.9-14.8-14.1-14.8c-5.7,0-10.6,2.4-12.7,5.3c-2,2.5-2.3,4.6-2.3,9v22.9
			c0,10.8,0.3,12.1,5.7,13l2.7,0.5c1.1,0.8,0.8,3.3-0.3,3.8c-4-0.3-8.4-0.5-13.6-0.5c-5.4,0-9.9,0.1-14.1,0.5c-1-0.5-1.3-3-0.3-3.8
			l3.2-0.5c5.5-0.8,5.7-2.3,5.7-13V67.9z"/>
</g>
</svg>
