<?xml version="1.0" encoding="utf-8"?>
<!-- Generator: Adobe Illustrator 19.0.0, SVG Export Plug-In . SVG Version: 6.00 Build 0)  -->
<svg version="1.1" xmlns="http://www.w3.org/2000/svg" xmlns:xlink="http://www.w3.org/1999/xlink" x="0px" y="0px"
	 viewBox="0 0 800 175" style="enable-background:new 0 0 800 175;" xml:space="preserve">
<style type="text/css">
	.st0{display:none;}
	.st1{display:inline;}
	.st2{font-family:'AGaramondPro-Regular';}
	.st3{font-size:200px;}
	.st4{letter-spacing:20;}
	.st5{font-family:'AJensonPro-Regular';}
	.st6{letter-spacing:19;}
	.st7{font-family:'DidotLTStd-Roman';}
	.st8{font-family:'TimesNewRomanPSMT';}
	.st9{font-family:'WarnockPro-Regular';}
	.st10{font-family:'Archer-Medium';}
	.st11{font-family:'ClarendonLTStd-Light';}
	.st12{font-family:'MesquiteStd';}
	.st13{fill:url(#XMLID_45_);}
	.st14{fill:url(#XMLID_46_);}
	.st15{fill:url(#XMLID_47_);}
	.st16{fill:url(#XMLID_48_);}
	.st17{fill:url(#XMLID_49_);}
	.st18{fill:url(#XMLID_50_);}
	.st19{fill:url(#XMLID_51_);}
	.st20{fill:url(#XMLID_52_);}
	.st21{font-family:'ChaparralPro-Regular';}
	.st22{font-size:18.6624px;}
	.st23{letter-spacing:1;}
</style>
<g id="Layer_1" class="st0">
	<text id="XMLID_1_" transform="matrix(1 0 0 1 79 230)" class="st1"><tspan x="0" y="0" class="st2 st3 st4">I</tspan><tspan x="87.6" y="0" class="st5 st3 st6">I</tspan><tspan x="177.8" y="0" class="st7 st3 st4">I</tspan><tspan x="275.4" y="0" class="st8 st3 st4">I</tspan><tspan x="362" y="0" class="st9 st3 st4">I</tspan><tspan x="449.2" y="0" class="st10 st3 st4">I</tspan><tspan x="538.8" y="0" class="st11 st3 st6">I</tspan><tspan x="636.6" y="0" class="st12 st3 st4">I</tspan></text>
</g>
<g id="Layer_2">
	<linearGradient id="XMLID_45_" gradientUnits="userSpaceOnUse" x1="354.6995" y1="1.1655" x2="354.6995" y2="100.1164">
		<stop  offset="0" style="stop-color:#FFFFFF;stop-opacity:0"/>
		<stop  offset="1.327175e-002" style="stop-color:#EDF0EF;stop-opacity:1.327175e-002"/>
		<stop  offset="6.946796e-002" style="stop-color:#BECDCA;stop-opacity:6.946796e-002"/>
		<stop  offset="0.1315" style="stop-color:#97B2AE;stop-opacity:0.1315"/>
		<stop  offset="0.1979" style="stop-color:#789F98;stop-opacity:0.1979"/>
		<stop  offset="0.27" style="stop-color:#5E9087;stop-opacity:0.27"/>
		<stop  offset="0.3498" style="stop-color:#47857B;stop-opacity:0.3498"/>
		<stop  offset="0.4404" style="stop-color:#327D73;stop-opacity:0.4404"/>
		<stop  offset="0.5483" style="stop-color:#1E786D;stop-opacity:0.5483"/>
		<stop  offset="0.6904" style="stop-color:#0A756A;stop-opacity:0.6904"/>
		<stop  offset="1" style="stop-color:#017569"/>
	</linearGradient>
	<path id="XMLID_5_" class="st13" d="M371.8,112.3c-2.4-1.4-4-3-4.8-4.9c-1-2.5-1.5-7.7-1.5-15.5V1.2h-21.9v90.8
		c0,9.3-0.9,15.1-2.7,17.5c-2.9,3.7-7.5,5.6-13.9,5.6h-5.5v4.2h66.2v-4.2h-5.6C378.6,115.1,375.1,114.2,371.8,112.3z"/>
	<linearGradient id="XMLID_46_" gradientUnits="userSpaceOnUse" x1="34.0017" y1="1.1655" x2="34.0017" y2="100.1164">
		<stop  offset="0" style="stop-color:#FFFFFF;stop-opacity:0"/>
		<stop  offset="1.327175e-002" style="stop-color:#EDF0EF;stop-opacity:1.327175e-002"/>
		<stop  offset="6.946796e-002" style="stop-color:#BECDCA;stop-opacity:6.946796e-002"/>
		<stop  offset="0.1315" style="stop-color:#97B2AE;stop-opacity:0.1315"/>
		<stop  offset="0.1979" style="stop-color:#789F98;stop-opacity:0.1979"/>
		<stop  offset="0.27" style="stop-color:#5E9087;stop-opacity:0.27"/>
		<stop  offset="0.3498" style="stop-color:#47857B;stop-opacity:0.3498"/>
		<stop  offset="0.4404" style="stop-color:#327D73;stop-opacity:0.4404"/>
		<stop  offset="0.5483" style="stop-color:#1E786D;stop-opacity:0.5483"/>
		<stop  offset="0.6904" style="stop-color:#0A756A;stop-opacity:0.6904"/>
		<stop  offset="1" style="stop-color:#017569"/>
	</linearGradient>
	<path id="XMLID_7_" class="st14" d="M63.6,113.4l-5.8-0.7c-13.8-1.6-14.2-4.9-14.2-29.6V0.5H24.4v82.7c0,24.7-0.5,28-14.2,29.6
		l-5.8,0.7c-1.4,1.4-0.9,5.1,0.5,5.8c11.7-0.5,19.6-0.7,29.4-0.7c9.3,0,17.3,0.2,28.9,0.7C64.6,118.6,65,114.4,63.6,113.4z"/>
	<linearGradient id="XMLID_47_" gradientUnits="userSpaceOnUse" x1="136.9641" y1="1.1655" x2="136.9641" y2="100.1164">
		<stop  offset="0" style="stop-color:#FFFFFF;stop-opacity:0"/>
		<stop  offset="1.327175e-002" style="stop-color:#EDF0EF;stop-opacity:1.327175e-002"/>
		<stop  offset="6.946796e-002" style="stop-color:#BECDCA;stop-opacity:6.946796e-002"/>
		<stop  offset="0.1315" style="stop-color:#97B2AE;stop-opacity:0.1315"/>
		<stop  offset="0.1979" style="stop-color:#789F98;stop-opacity:0.1979"/>
		<stop  offset="0.27" style="stop-color:#5E9087;stop-opacity:0.27"/>
		<stop  offset="0.3498" style="stop-color:#47857B;stop-opacity:0.3498"/>
		<stop  offset="0.4404" style="stop-color:#327D73;stop-opacity:0.4404"/>
		<stop  offset="0.5483" style="stop-color:#1E786D;stop-opacity:0.5483"/>
		<stop  offset="0.6904" style="stop-color:#0A756A;stop-opacity:0.6904"/>
		<stop  offset="1" style="stop-color:#017569"/>
	</linearGradient>
	<path id="XMLID_9_" class="st15" d="M167.2,112.1c-2.1-0.5-9.8-1.2-12.1-1.6c-3.5-0.7-5.4-1.6-5.8-7.5c-0.7-7.9-1.2-19.6-1.2-33.6
		V22.7c0-8.9,0.1-15.8,0.2-21.3h-20.1c0,2.9,0,6,0,9.6v55.8c0,26.1-1.2,34.3-1.4,38c-0.9,6.3-6.1,7.5-22.6,7.9
		c-0.2,1.4,0.2,3.5,0.9,5.8c0.2,0.9,1.4,1.9,2.8,1.9c0.7-0.2,12.6-0.9,22.9-0.9c8.6-0.2,18.2,0,37.1,0.5c0.5-0.7,1.9-4.9,1.9-6.5
		C169.8,112.8,168.8,112.5,167.2,112.1z"/>
	<linearGradient id="XMLID_48_" gradientUnits="userSpaceOnUse" x1="247.219" y1="1.1655" x2="247.219" y2="100.1164">
		<stop  offset="0" style="stop-color:#FFFFFF;stop-opacity:0"/>
		<stop  offset="1.327175e-002" style="stop-color:#EDF0EF;stop-opacity:1.327175e-002"/>
		<stop  offset="6.946796e-002" style="stop-color:#BECDCA;stop-opacity:6.946796e-002"/>
		<stop  offset="0.1315" style="stop-color:#97B2AE;stop-opacity:0.1315"/>
		<stop  offset="0.1979" style="stop-color:#789F98;stop-opacity:0.1979"/>
		<stop  offset="0.27" style="stop-color:#5E9087;stop-opacity:0.27"/>
		<stop  offset="0.3498" style="stop-color:#47857B;stop-opacity:0.3498"/>
		<stop  offset="0.4404" style="stop-color:#327D73;stop-opacity:0.4404"/>
		<stop  offset="0.5483" style="stop-color:#1E786D;stop-opacity:0.5483"/>
		<stop  offset="0.6904" style="stop-color:#0A756A;stop-opacity:0.6904"/>
		<stop  offset="1" style="stop-color:#017569"/>
	</linearGradient>
	<polygon id="XMLID_11_" class="st16" points="258.9,1.2 235.6,1.2 235.6,116 209.7,116 209.7,119.3 284.8,119.3 284.8,116 
		258.9,116 	"/>
	<linearGradient id="XMLID_49_" gradientUnits="userSpaceOnUse" x1="456.4696" y1="1.1655" x2="456.4696" y2="100.1164">
		<stop  offset="0" style="stop-color:#FFFFFF;stop-opacity:0"/>
		<stop  offset="1.327175e-002" style="stop-color:#EDF0EF;stop-opacity:1.327175e-002"/>
		<stop  offset="6.946796e-002" style="stop-color:#BECDCA;stop-opacity:6.946796e-002"/>
		<stop  offset="0.1315" style="stop-color:#97B2AE;stop-opacity:0.1315"/>
		<stop  offset="0.1979" style="stop-color:#789F98;stop-opacity:0.1979"/>
		<stop  offset="0.27" style="stop-color:#5E9087;stop-opacity:0.27"/>
		<stop  offset="0.3498" style="stop-color:#47857B;stop-opacity:0.3498"/>
		<stop  offset="0.4404" style="stop-color:#327D73;stop-opacity:0.4404"/>
		<stop  offset="0.5483" style="stop-color:#1E786D;stop-opacity:0.5483"/>
		<stop  offset="0.6904" style="stop-color:#0A756A;stop-opacity:0.6904"/>
		<stop  offset="1" style="stop-color:#017569"/>
	</linearGradient>
	<path id="XMLID_13_" class="st17" d="M466.3,39V0.9h-20.8V39c0,38.7-0.5,63.9-1.4,67.7l-18.4,7l-1.6,5.6c9.1,0,20.3-0.2,32-0.2
		c12.1,0,22.4,0.2,31.3,0.2l1.6-5.6l-21.5-7C467,102.7,466.3,77.8,466.3,39z"/>
	<linearGradient id="XMLID_50_" gradientUnits="userSpaceOnUse" x1="668.5186" y1="1.1655" x2="668.5186" y2="100.1164">
		<stop  offset="0" style="stop-color:#FFFFFF;stop-opacity:0"/>
		<stop  offset="1.327175e-002" style="stop-color:#EDF0EF;stop-opacity:1.327175e-002"/>
		<stop  offset="6.946796e-002" style="stop-color:#BECDCA;stop-opacity:6.946796e-002"/>
		<stop  offset="0.1315" style="stop-color:#97B2AE;stop-opacity:0.1315"/>
		<stop  offset="0.1979" style="stop-color:#789F98;stop-opacity:0.1979"/>
		<stop  offset="0.27" style="stop-color:#5E9087;stop-opacity:0.27"/>
		<stop  offset="0.3498" style="stop-color:#47857B;stop-opacity:0.3498"/>
		<stop  offset="0.4404" style="stop-color:#327D73;stop-opacity:0.4404"/>
		<stop  offset="0.5483" style="stop-color:#1E786D;stop-opacity:0.5483"/>
		<stop  offset="0.6904" style="stop-color:#0A756A;stop-opacity:0.6904"/>
		<stop  offset="1" style="stop-color:#017569"/>
	</linearGradient>
	<path id="XMLID_15_" class="st18" d="M679.7,95.3V1.2h-22.6v94.1c0,7.5-3.3,11.9-10.5,11.9h-17.7v12.1h79.3v-12.1h-18
		C683,107.2,679.7,102.7,679.7,95.3z"/>
	<linearGradient id="XMLID_51_" gradientUnits="userSpaceOnUse" x1="766.3882" y1="1.1655" x2="766.3882" y2="100.1164">
		<stop  offset="0" style="stop-color:#FFFFFF;stop-opacity:0"/>
		<stop  offset="1.327175e-002" style="stop-color:#EDF0EF;stop-opacity:1.327175e-002"/>
		<stop  offset="6.946796e-002" style="stop-color:#BECDCA;stop-opacity:6.946796e-002"/>
		<stop  offset="0.1315" style="stop-color:#97B2AE;stop-opacity:0.1315"/>
		<stop  offset="0.1979" style="stop-color:#789F98;stop-opacity:0.1979"/>
		<stop  offset="0.27" style="stop-color:#5E9087;stop-opacity:0.27"/>
		<stop  offset="0.3498" style="stop-color:#47857B;stop-opacity:0.3498"/>
		<stop  offset="0.4404" style="stop-color:#327D73;stop-opacity:0.4404"/>
		<stop  offset="0.5483" style="stop-color:#1E786D;stop-opacity:0.5483"/>
		<stop  offset="0.6904" style="stop-color:#0A756A;stop-opacity:0.6904"/>
		<stop  offset="1" style="stop-color:#017569"/>
	</linearGradient>
	<path id="XMLID_17_" class="st19" d="M779.3,97.4v5.8c0,1.9-0.2,2.8-1.4,2.8c-0.9,0-1.4-0.7-1.4-5.1V51.6c0-9.8,1.6-14.5,3.7-16.6
		c-1.4-0.9-2.6-2.6-2.6-4.4c0-1.9,0.9-4,2.6-4.7c-1.9-1.9-3.7-4.9-3.7-16.6V0h-19.1v9.4c0,11-1.9,14.2-3.5,16.6
		c1.6,0.7,2.6,2.8,2.6,4.7c0,1.6-1.2,3.5-2.6,4.4c1.6,1.4,3.5,4.4,3.5,16.6v49.9c0,3.7-0.5,4.9-1.4,4.9c-1.4,0-1.6-0.7-1.6-3.3V96
		h-1.9l-2.3,19.4c2.3,0.5,5.6,2.6,7.2,5.1c2.1-1.4,4-2.3,8.9-2.3c2.6,0,4.2,0.2,5.6,0.7c1.6,0.2,2.6,0.9,3.5,1.6
		c1.2-2.1,4.9-4.7,7.2-4.4l-1.2-18.7H779.3z"/>
	<linearGradient id="XMLID_52_" gradientUnits="userSpaceOnUse" x1="559.1116" y1="1.1655" x2="559.1116" y2="100.1164">
		<stop  offset="0" style="stop-color:#FFFFFF;stop-opacity:0"/>
		<stop  offset="1.327175e-002" style="stop-color:#EDF0EF;stop-opacity:1.327175e-002"/>
		<stop  offset="6.946796e-002" style="stop-color:#BECDCA;stop-opacity:6.946796e-002"/>
		<stop  offset="0.1315" style="stop-color:#97B2AE;stop-opacity:0.1315"/>
		<stop  offset="0.1979" style="stop-color:#789F98;stop-opacity:0.1979"/>
		<stop  offset="0.27" style="stop-color:#5E9087;stop-opacity:0.27"/>
		<stop  offset="0.3498" style="stop-color:#47857B;stop-opacity:0.3498"/>
		<stop  offset="0.4404" style="stop-color:#327D73;stop-opacity:0.4404"/>
		<stop  offset="0.5483" style="stop-color:#1E786D;stop-opacity:0.5483"/>
		<stop  offset="0.6904" style="stop-color:#0A756A;stop-opacity:0.6904"/>
		<stop  offset="1" style="stop-color:#017569"/>
	</linearGradient>
	<polygon id="XMLID_19_" class="st20" points="567.7,1.2 550.5,1.2 550.5,103.9 529.7,103.9 529.7,119.3 588.5,119.3 588.5,103.9 
		567.7,103.9 	"/>
	<text id="XMLID_4_" transform="matrix(1 0 0 1 0.1958 150.0571)" class="st21 st22 st23">Cupped</text>
	<text id="XMLID_6_" transform="matrix(1 0 0 1 97.0459 150.0571)" class="st21 st22 st23">Rounded</text>
	<text id="XMLID_8_" transform="matrix(1 0 0 1 209.4194 150.0571)" class="st21 st22 st23">Hairline</text>
	<text id="XMLID_10_" transform="matrix(1 0 0 1 309.2202 150.0571)" class="st21 st22 st23">Bracketed</text>
	<text id="XMLID_16_" transform="matrix(1 0 0 1 623.0391 150.0571)"><tspan x="0" y="0" class="st21 st22 st23">Bracketed</tspan><tspan x="26.7" y="22.4" class="st21 st22 st23">Slab</tspan></text>
	<text id="XMLID_18_" transform="matrix(1 0 0 1 734.5605 150.0571)" class="st21 st22 st23">Tuscan</text>
	<text id="XMLID_12_" transform="matrix(1 0 0 1 427.0117 150.0571)" class="st21 st22 st23">Wedge</text>
	<text id="XMLID_14_" transform="matrix(1 0 0 1 540.3477 150.0571)" class="st21 st22 st23">Slab</text>
</g>
</svg>
